# xmcd CD database file
#
# Track frame offsets:
#	150
#	13129
#	25450
#	40111
#	54382
#	68290
#	81187
#	91062
#	103249
#	115338
#	127102
#	143184
#	155630
#	167898
#	180975
#	195095
#	211252
#	227658
#	239394
#	252058
#	264704
#	277694
#	295343
#	308700
#
# Disc length: 4282 seconds
#
# Revision: 2
# Processed by: cddbd v1.5.2PL0 Copyright (c) Steve Scherf et al.
# Submitted via: CDex 1.70beta2
#
DISCID=4510b818
DTITLE=Merle Haggard - I'm A Lonesome Fugitive
DYEAR=1998
DGENRE=Country
TTITLE0=Swinging Doors
TTITLE1=The Bottle Let Me Down
TTITLE2=I'm A Lonesome Fugitive
TTITLE3=Branded Man
TTITLE4=I Threw Away The Rose
TTITLE5=Sing Me Back Home
TTITLE6=Mama Tried
TTITLE7=I Take A Lot Of Pride In What I Am
TTITLE8=Okie From Muskogee
TTITLE9=Carolyn
TTITLE10=It's Not Love (But It's Not Bad)
TTITLE11=If We Make It Through December
TTITLE12=Everybody's Had The Blues
TTITLE13=Kentucky Gambler
TTITLE14=Always Wanting You
TTITLE15=It's All In The Movies
TTITLE16=Ramblin' Fever
TTITLE17=From Graceland To The Promised Land
TTITLE18=I'm Always On A Mountain When I Fall
TTITLE19=It's Been A Great Afternoon
TTITLE20=Misery And Gin
TTITLE21=I Think I'll Just Stay Here Drink
TTITLE22=Holding Things Together
TTITLE23=Silver Wings
EXTD=2000 Weton-Wesgram B.V. GoldenGiants GG047 YEAR: 1998
EXTT0=
EXTT1=
EXTT2=
EXTT3=
EXTT4=
EXTT5=
EXTT6=
EXTT7=
EXTT8=
EXTT9=
EXTT10=
EXTT11=
EXTT12=
EXTT13=
EXTT14=
EXTT15=
EXTT16=
EXTT17=
EXTT18=
EXTT19=
EXTT20=
EXTT21=
EXTT22=
EXTT23=
PLAYORDER=
